<mxfile host="app.diagrams.net" modified="2023-02-19T12:09:59.573Z" agent="5.0 (Windows NT 10.0; Win64; x64) AppleWebKit/537.36 (KHTML, like Gecko) Chrome/109.0.0.0 Safari/537.36" etag="FqznVcPRsfTQX_stI-3o" version="20.8.20" type="github">
  <diagram name="Page-1" id="a7904f86-f2b4-8e86-fa97-74104820619b">
    <mxGraphModel dx="2347" dy="692" grid="1" gridSize="10" guides="1" tooltips="1" connect="1" arrows="1" fold="1" page="1" pageScale="1" pageWidth="1100" pageHeight="850" background="none" math="0" shadow="1">
      <root>
        <mxCell id="0" />
        <mxCell id="1" parent="0" />
        <mxCell id="E8Vs56RH-SD99DKzMSvT-30" style="edgeStyle=orthogonalEdgeStyle;rounded=0;orthogonalLoop=1;jettySize=auto;html=1;exitX=1;exitY=0.25;exitDx=0;exitDy=0;entryX=0;entryY=0.627;entryDx=0;entryDy=0;entryPerimeter=0;" edge="1" parent="1" source="24794b860abc3c2d-1" target="24794b860abc3c2d-20">
          <mxGeometry relative="1" as="geometry" />
        </mxCell>
        <mxCell id="E8Vs56RH-SD99DKzMSvT-44" style="edgeStyle=orthogonalEdgeStyle;rounded=0;orthogonalLoop=1;jettySize=auto;html=1;exitX=1;exitY=0.75;exitDx=0;exitDy=0;entryX=0;entryY=0.5;entryDx=0;entryDy=0;" edge="1" parent="1" source="24794b860abc3c2d-1" target="24794b860abc3c2d-19">
          <mxGeometry relative="1" as="geometry">
            <Array as="points">
              <mxPoint x="180" y="340" />
              <mxPoint x="220" y="340" />
              <mxPoint x="220" y="425" />
            </Array>
          </mxGeometry>
        </mxCell>
        <mxCell id="24794b860abc3c2d-1" value="&lt;p style=&quot;margin: 0px ; margin-top: 4px ; text-align: center ; text-decoration: underline&quot;&gt;&lt;b&gt;Поступающий&lt;/b&gt;&lt;/p&gt;&lt;hr&gt;&lt;p style=&quot;margin: 0px ; margin-left: 8px&quot;&gt;ID пользователя&lt;br&gt;Имя&lt;br&gt;Фамилия&lt;/p&gt;&lt;p style=&quot;margin: 0px ; margin-left: 8px&quot;&gt;&lt;span style=&quot;background-color: initial;&quot;&gt;Отчество&lt;/span&gt;&lt;/p&gt;&lt;p style=&quot;margin: 0px ; margin-left: 8px&quot;&gt;Почта&lt;br&gt;&lt;/p&gt;&lt;p style=&quot;margin: 0px ; margin-left: 8px&quot;&gt;Пароль&lt;/p&gt;&lt;p style=&quot;margin: 0px ; margin-left: 8px&quot;&gt;Статус&lt;/p&gt;&lt;p style=&quot;margin: 0px ; margin-left: 8px&quot;&gt;Уровень знаний&lt;/p&gt;" style="verticalAlign=top;align=left;overflow=fill;fontSize=12;fontFamily=Helvetica;html=1;rounded=0;shadow=0;comic=0;labelBackgroundColor=none;strokeWidth=1" parent="1" vertex="1">
          <mxGeometry x="40" y="205" width="140" height="155" as="geometry" />
        </mxCell>
        <mxCell id="E8Vs56RH-SD99DKzMSvT-41" style="edgeStyle=orthogonalEdgeStyle;rounded=0;orthogonalLoop=1;jettySize=auto;html=1;exitX=1;exitY=0.5;exitDx=0;exitDy=0;entryX=0.994;entryY=0.595;entryDx=0;entryDy=0;entryPerimeter=0;" edge="1" parent="1" source="24794b860abc3c2d-17" target="24794b860abc3c2d-20">
          <mxGeometry relative="1" as="geometry">
            <Array as="points">
              <mxPoint x="440" y="300" />
              <mxPoint x="440" y="114" />
              <mxPoint x="409" y="114" />
            </Array>
          </mxGeometry>
        </mxCell>
        <mxCell id="24794b860abc3c2d-17" value="&lt;p style=&quot;margin: 0px ; margin-top: 4px ; text-align: center ; text-decoration: underline&quot;&gt;&lt;b&gt;База заданий&lt;/b&gt;&lt;/p&gt;&lt;hr&gt;&lt;p style=&quot;margin: 0px ; margin-left: 8px&quot;&gt;Индивидуальный&amp;nbsp;&lt;/p&gt;&lt;p style=&quot;margin: 0px ; margin-left: 8px&quot;&gt;номер варианта&lt;/p&gt;&lt;p style=&quot;margin: 0px ; margin-left: 8px&quot;&gt;Задание&lt;/p&gt;&lt;p style=&quot;margin: 0px ; margin-left: 8px&quot;&gt;&lt;br&gt;&lt;/p&gt;&lt;p style=&quot;margin: 0px ; margin-left: 8px&quot;&gt;&lt;br&gt;&lt;/p&gt;" style="verticalAlign=top;align=left;overflow=fill;fontSize=12;fontFamily=Helvetica;html=1;rounded=0;shadow=0;comic=0;labelBackgroundColor=none;strokeWidth=1" parent="1" vertex="1">
          <mxGeometry x="280" y="260" width="140" height="80" as="geometry" />
        </mxCell>
        <mxCell id="24794b860abc3c2d-19" value="&lt;p style=&quot;margin: 0px ; margin-top: 4px ; text-align: center ; text-decoration: underline&quot;&gt;&lt;b&gt;План курсов&lt;/b&gt;&lt;/p&gt;&lt;hr&gt;&lt;p style=&quot;margin: 0px ; margin-left: 8px&quot;&gt;Уровень сложности&lt;br style=&quot;border-color: var(--border-color);&quot;&gt;&lt;span style=&quot;border-color: var(--border-color); background-color: initial;&quot;&gt;Язык программирования&lt;/span&gt;&lt;br&gt;&lt;/p&gt;" style="verticalAlign=top;align=left;overflow=fill;fontSize=12;fontFamily=Helvetica;html=1;rounded=0;shadow=0;comic=0;labelBackgroundColor=none;strokeWidth=1" parent="1" vertex="1">
          <mxGeometry x="260" y="385" width="180" height="80" as="geometry" />
        </mxCell>
        <mxCell id="24794b860abc3c2d-20" value="&lt;p style=&quot;margin: 0px ; margin-top: 4px ; text-align: center ; text-decoration: underline&quot;&gt;&lt;b&gt;Индивидуальное&lt;/b&gt;&lt;/p&gt;&lt;p style=&quot;margin: 0px ; margin-top: 4px ; text-align: center ; text-decoration: underline&quot;&gt;&lt;b&gt;&amp;nbsp;задание&lt;br&gt;&lt;/b&gt;&lt;/p&gt;&lt;hr&gt;&lt;p style=&quot;margin: 0px ; margin-left: 8px&quot;&gt;&lt;span style=&quot;background-color: initial;&quot;&gt;ID пользователя&lt;/span&gt;&lt;br&gt;&lt;/p&gt;&lt;p style=&quot;margin: 0px ; margin-left: 8px&quot;&gt;Оценка за задание&lt;/p&gt;" style="verticalAlign=top;align=left;overflow=fill;fontSize=12;fontFamily=Helvetica;html=1;rounded=0;shadow=0;comic=0;labelBackgroundColor=none;strokeWidth=1" parent="1" vertex="1">
          <mxGeometry x="270" y="60" width="140" height="90" as="geometry" />
        </mxCell>
        <mxCell id="E8Vs56RH-SD99DKzMSvT-48" style="edgeStyle=orthogonalEdgeStyle;rounded=0;orthogonalLoop=1;jettySize=auto;html=1;exitX=0;exitY=0.75;exitDx=0;exitDy=0;entryX=0;entryY=0.25;entryDx=0;entryDy=0;" edge="1" parent="1" source="24794b860abc3c2d-23" target="24794b860abc3c2d-1">
          <mxGeometry relative="1" as="geometry">
            <Array as="points">
              <mxPoint x="-40" y="477" />
              <mxPoint x="-40" y="244" />
            </Array>
          </mxGeometry>
        </mxCell>
        <mxCell id="E8Vs56RH-SD99DKzMSvT-51" style="edgeStyle=orthogonalEdgeStyle;rounded=0;orthogonalLoop=1;jettySize=auto;html=1;exitX=0;exitY=0.5;exitDx=0;exitDy=0;entryX=-0.013;entryY=0.9;entryDx=0;entryDy=0;entryPerimeter=0;" edge="1" parent="1" source="24794b860abc3c2d-23" target="24794b860abc3c2d-1">
          <mxGeometry relative="1" as="geometry">
            <Array as="points">
              <mxPoint x="10" y="455" />
              <mxPoint x="10" y="345" />
              <mxPoint x="38" y="345" />
            </Array>
          </mxGeometry>
        </mxCell>
        <mxCell id="24794b860abc3c2d-23" value="&lt;p style=&quot;margin: 0px ; margin-top: 4px ; text-align: center ; text-decoration: underline&quot;&gt;&lt;b&gt;Анкета&lt;/b&gt;&lt;/p&gt;&lt;hr&gt;&lt;p style=&quot;margin: 0px ; margin-left: 8px&quot;&gt;Уровень знаний&lt;/p&gt;&lt;p style=&quot;margin: 0px ; margin-left: 8px&quot;&gt;Причина участия&lt;/p&gt;&lt;p style=&quot;margin: 0px ; margin-left: 8px&quot;&gt;ID пользователя&lt;/p&gt;" style="verticalAlign=top;align=left;overflow=fill;fontSize=12;fontFamily=Helvetica;html=1;rounded=0;shadow=0;comic=0;labelBackgroundColor=none;strokeWidth=1" parent="1" vertex="1">
          <mxGeometry x="30" y="410" width="140" height="90" as="geometry" />
        </mxCell>
        <mxCell id="E8Vs56RH-SD99DKzMSvT-56" style="edgeStyle=orthogonalEdgeStyle;rounded=0;orthogonalLoop=1;jettySize=auto;html=1;exitX=0;exitY=0.75;exitDx=0;exitDy=0;entryX=0;entryY=0.25;entryDx=0;entryDy=0;" edge="1" parent="1" source="E8Vs56RH-SD99DKzMSvT-10" target="24794b860abc3c2d-1">
          <mxGeometry relative="1" as="geometry">
            <Array as="points">
              <mxPoint x="-38" y="80" />
              <mxPoint x="-58" y="80" />
              <mxPoint x="-58" y="244" />
            </Array>
          </mxGeometry>
        </mxCell>
        <mxCell id="E8Vs56RH-SD99DKzMSvT-10" value="&lt;p style=&quot;margin: 0px ; margin-top: 4px ; text-align: center ; text-decoration: underline&quot;&gt;&lt;b&gt;Интервью&lt;/b&gt;&lt;/p&gt;&lt;hr&gt;&lt;p style=&quot;margin: 0px ; margin-left: 8px&quot;&gt;Любимая сфера деятельности&lt;/p&gt;&lt;p style=&quot;margin: 0px ; margin-left: 8px&quot;&gt;ID пользователя&lt;/p&gt;&lt;p style=&quot;margin: 0px ; margin-left: 8px&quot;&gt;Номер интервью&lt;/p&gt;&lt;p style=&quot;margin: 0px ; margin-left: 8px&quot;&gt;Удобное время для занятий&lt;/p&gt;&lt;p style=&quot;margin: 0px ; margin-left: 8px&quot;&gt;&lt;br&gt;&lt;/p&gt;" style="verticalAlign=top;align=left;overflow=fill;fontSize=12;fontFamily=Helvetica;html=1;rounded=0;shadow=0;comic=0;labelBackgroundColor=none;strokeWidth=1" vertex="1" parent="1">
          <mxGeometry x="-37.5" y="30" width="200" height="100" as="geometry" />
        </mxCell>
        <mxCell id="E8Vs56RH-SD99DKzMSvT-33" value="" style="shape=image;verticalLabelPosition=bottom;labelBackgroundColor=default;verticalAlign=top;aspect=fixed;imageAspect=0;image=data:image/jpeg,/9j/4AAQSkZJRgABAQAAAQABAAD/2wCEAAkGBxASEBIQEBEWExATExMVFxUWEhMRExUVGREXFxgXGBUYHSggGBomGxUWITEhJikrLi4uFyAzODMtNygtLisBCgoKDg0OGxAQGisdHSUvLS0tKystLS0tLS0tLS0tLS0tLS0tLS0tLSstLS0tLS0tLS0tLSstLS0tLTctLS0rLf/AABEIAOEA4QMBIgACEQEDEQH/xAAbAAEAAgMBAQAAAAAAAAAAAAAABgcDBAUBAv/EAD0QAAIBAgMEBgcGBgIDAAAAAAABAgMRBCExBRJBUQYTIjJhgQcjcZGhscFCUnJzsvAUM1PC0eEVYmOCk//EABgBAQADAQAAAAAAAAAAAAAAAAABAgME/8QAHBEBAQEBAQADAQAAAAAAAAAAAAECETEDIUEy/9oADAMBAAIRAxEAPwC8QAAAAAAAAAAAAAAAAYMTi6dNXqTjFeLS9y4nLn0ow3CTlnbJfGzzsRbIcdsHGo9JcPLjJZ/d/wAG/h9o0ajtCpFvlez9zImpU8bQALIAAAAAAAAAAAAAAAAAAAAAAAAAAAADA8k7ZvQiW3+ldrww7zTs52vw+yuPtPjpbthybw1J6d+2ry7qIo6dne/a4+CMd7/IvmftZ7Var3qk3nfN9p/H5GajgYyaShKTtzldv2I+cPBSais23lnaKv4XOh/wGLrRlThLcpXs8929rrhm+JlJasQ6PtxUup5vWaa9zPh4KKs4VKkLW1e9uv8A9rto1F0PxuEfXYareUeCl55xlk14Haji1jMP1ltzEU85JcUspe7PxJueIfOE2/iKDXXtVKN+8smle2a1j53XiiX4PGQqx3oSuiCYXEOLs7vWySurSSTeXHQ8pYmeFl11J2pSvvw4Rs12ra2vql7S+d2IsWIDBg8TGpCM4u6kk/8ARnN1AAAAAAAAAAAAAAAAAAAAAAAAA5+3Mf1FCdT7WkV/2eSOgRXpvO6pUvvbzfkV1eRM9Q+Mm5SlN9qWd8tW8z7p005KLdlzzfwRik8/BfK5kpxbbsm0ld2V7K+rtojl61ZqsXB7r4NP25ll4Fp04OPdcYteaKzm95JZZLzfnxN7AdIa9CG7a8IvXvK3jbNfvMvjUzVbOrClEhFecKeIrKNt2Tk7ppWbik1lwyt5mGp0qnVVutUbu1oK+Vueb5mpVrOTbaeaWXhwG9y+IkfO8k/HmeurJwbb3ufEw9pyStd3Vks37LHxVpzjJxmnF20at8CsqXX6G7RdOt1F7wm+znpk2vdbd9xPipKFaUWpptThJNaaa/NFr0J70Yy5pP3q5v8AHfxXUZAAaKgAAAAAAAAAAAAAAAAAAAAARLpZvSr04LV03ZvRWd8/IlpFelKtXpN91xaeduLM/k8Wz6hbubOz5SVaFpOF2lvJ6Zo+MXHdnKHGLafk7GJySlB5Xu/9fQ5uteOzLE1G49ZSpVZNzi7PqKilHW8r7rXG7MEZ0XLdVOvBpPRKtp+FHxWi5zqqnJNQnVko27T7ednxaWduSZgwNeSm3FvejFOybTylmlbjbnyCvGysRQs3as4rVqm1bPierGQu3GjKXHtzjGNvGKtJr2BfzKizcHG+uqck7u2trvMx4acVO0k3FxaaVt6zT052yfkBsxrTnKjuTgozqRjandShmr3bV3k9fBmntrEdZWnK/Gy4OyVllzsjo7Mp0v4mj1TetTKSjk1C6yXD/DOFjO807Jpu9s87/v3Ej537qSb4LTLK9/MtnANdVTtpuQ/Sip8JFylFLWbjG1ub/fuLcowtFRWiSXuRv8Su32ADVQAAAAAAAAAAAAAAAAAAAAACP9LsO3TVRfY19jevkyQGPEUlOLi1dNWZXU7ExWm36F4QxcHeE0oz/wCtRRSd/B2uc3BNVKtOLskmnm0lrzfsO+4LDVqmFr3/AIWs2r8k3lJPhJZe4ju39jToVIq7cHnGa7s1wa8ea8DmuW8v1xnhU6uUZuoo1FNyyvO99U9LnzDEYftb0Zyu+EIrwdr38jDhdn1px3405zve8t1yzXiZXs+v/TqN/gll8CqtdLD7SoQkpU/4neirP1dGUbX5L46aG0sbRnXjX6+LsrOE6ap2Vmmnm3o39l35nEwtDExe9CnPLLuNrT2fu591cBVlb1E1zW62r81lkEcd7EqnTxNCtTSjT3le00295a7rd0reRGsfNOpO2m80tOfgzFjKNSKUJOcUmpKLb3b+CenkbGAwsqtRRirzb8ld6v8AwSmO30HwLqV1Ut2KV37ZuNl7r39xYpo7I2dGhTVOGi14tvi34m8dOM8jLV7QAF0AAAAAAAAAAAAAAAAAAAAAAAAObtvZcMRSlTlrZ2lbOL5ogmMr18FRnh69JVqbfqt7OCyd2nqnpl7SzGjnbY2XCvTdOay4PinzRTWVpVF/8xPSMmle1t5peOXA9jtmrbOtL/6S8s7mTbGynTxLoNK7mlfJWu7XvyOLN2lKyTtJrnxtcpyLfbtUdtV4q0a1RXzyqSj9TNT6Q4n7Netb8+o/dmcWhSd1ms7LTj5G3jEoT3UlvJR8VnC97+Y4jtTvYFeptCEqdVSnUpbu7Usm0pXTUm9e7dP2k62JsWnh4JJdri9X7yGeijFRTr0m1vy3JLnK29e3sun5lkItnM9Rb+AANFQAAAAAAAAAAAAAAAAAAAAAAAAAADxnoIorXptgoLH0Ztd7dbXPtWIdVwEEsTladPGbi4tQca2Xvgs/Am3pNuqlNrXck1bXJohEo+tlm+1Ubavk2oys2ufal72Ya/prn7jVeF8CR9KNlQhCvXpxtUpzwnJrdqUFdNad75mhueRjx1SUozjvytKMG1d2lu92642I3fDMYsBKcXCrHszT3k45Wle9y9sNK8It6uMX70UlhKVopf7RdeB/lU/wR/SjXCmmcAGioAAAAAAAAAAAAAAAAAAAAAAAAAAAAIorz0mJb8L/ANOfzRB8TH1t/H+1k49Jveh+VP5ohGJ/m+Hw7ruc+/W2PG7CV3FSdlzsrmvUpb04x4tRXm5WMtPVH3RoylXpRjG824WXN71/oyNficpdsrofLeXWRaimr9pZ556E+irZCJ6dEnGNvQAFkAAAAAAAAAAAAAAAAAAAAAAAAAAAAHjIorz0nPtR/Km/iiD4qb61Lh/mMicek3vwXOjUINiv53l/bI59+tseN+lqvavmSLoM4LHJSV5OlLdetmm2/hdEbpvQtfYew6dCUqqXrJ5X+7HkvmWk7qK95K7IAN2YAAAAAAAAAAAAAAAAAAAAAAAAAAAAAHjPTxkUV16UV26X5VVfpIPiFat5L9Mic+lB9ql+XU+hCMSvW+X9kjn362x43KXDy+Zb+xqlaUJdallJqL4uNuPmVBhLb8N7u70b+y+ZdtO1stDTE+1NPsAGqgAAAAAAAAAAAAAAAAAAAAAAAAAAAAAHjPQRRXfpPynTf/iqELrr1r/f2JEz9KPfpfl1fkiF15et/f3ZHPv1tnxmpZNeRcWx8FKkp703JSldLXdVvqU5S4L2Fx7Hr1ZqXWxSSlaLXFW5F8/0pfHRABsoAAAAAAAAAAAAAAAAAAAAAAAAAAAAAAB4yKK69Kfeo/gqfQheLfrH7P7JE19KXfo/l1PoQrGtKcmm32c8rZ7kvE59+tseM2B3XUgpu0d+Kk+Ud5X+Fy8oJWVtCj9n0JVKsIQV5SlFLzZd9KCirI1wz0+wAaKgAAAAAAAAAAAAAAAAAAAAAAAAAAAAAeHoArv0oLtUnw6up9CEY7vT/C/0SLZ6ZbEeJo9j+ZG9uGT1KuxlJ79aLWcIv23VOpl8Dn3Ptrjxk2Hjeor0qtrqMk7c1o/gy7KdSL0adnZ+DKM2dhZ1akKcFeUmkkXhh6Cjokm82+bNM96pWYAGioAAAAAAAAAAAAAAAAAAAAAAAAAAAAAAADxoh3Sno2pOvWpQvOrRcbL+pnaXhdSaJkCLOpl4i3Q7oysNBVKiTryWv3FyX1JSAJOFoACUAAAAAAAAAAAAAAAAAAAAAAAAAAAAAAAAAAAAAAAAAAAAAAAAAAAAAAAAP//Z;" vertex="1" parent="1">
          <mxGeometry x="150" y="240" width="20" height="20" as="geometry" />
        </mxCell>
        <mxCell id="E8Vs56RH-SD99DKzMSvT-36" value="" style="shape=image;verticalLabelPosition=bottom;labelBackgroundColor=default;verticalAlign=top;aspect=fixed;imageAspect=0;image=data:image/jpeg,/9j/4AAQSkZJRgABAQAAAQABAAD/2wCEAAkGBxASEBIQEBEWExATExMVFxUWEhMRExUVGREXFxgXGBUYHSggGBomGxUWITEhJikrLi4uFyAzODMtNygtLisBCgoKDg0OGxAQGisdHSUvLS0tKystLS0tLS0tLS0tLS0tLS0tLS0tLSstLS0tLS0tLS0tLSstLS0tLTctLS0rLf/AABEIAOEA4QMBIgACEQEDEQH/xAAbAAEAAgMBAQAAAAAAAAAAAAAABgcDBAUBAv/EAD0QAAIBAgMEBgcGBgIDAAAAAAABAgMRBCExBRJBUQYTIjJhgQcjcZGhscFCUnJzsvAUM1PC0eEVYmOCk//EABgBAQADAQAAAAAAAAAAAAAAAAABAgME/8QAHBEBAQEBAQADAQAAAAAAAAAAAAECETEDIUEy/9oADAMBAAIRAxEAPwC8QAAAAAAAAAAAAAAAAYMTi6dNXqTjFeLS9y4nLn0ow3CTlnbJfGzzsRbIcdsHGo9JcPLjJZ/d/wAG/h9o0ajtCpFvlez9zImpU8bQALIAAAAAAAAAAAAAAAAAAAAAAAAAAAADA8k7ZvQiW3+ldrww7zTs52vw+yuPtPjpbthybw1J6d+2ry7qIo6dne/a4+CMd7/IvmftZ7Var3qk3nfN9p/H5GajgYyaShKTtzldv2I+cPBSais23lnaKv4XOh/wGLrRlThLcpXs8929rrhm+JlJasQ6PtxUup5vWaa9zPh4KKs4VKkLW1e9uv8A9rto1F0PxuEfXYareUeCl55xlk14Haji1jMP1ltzEU85JcUspe7PxJueIfOE2/iKDXXtVKN+8smle2a1j53XiiX4PGQqx3oSuiCYXEOLs7vWySurSSTeXHQ8pYmeFl11J2pSvvw4Rs12ra2vql7S+d2IsWIDBg8TGpCM4u6kk/8ARnN1AAAAAAAAAAAAAAAAAAAAAAAAA5+3Mf1FCdT7WkV/2eSOgRXpvO6pUvvbzfkV1eRM9Q+Mm5SlN9qWd8tW8z7p005KLdlzzfwRik8/BfK5kpxbbsm0ld2V7K+rtojl61ZqsXB7r4NP25ll4Fp04OPdcYteaKzm95JZZLzfnxN7AdIa9CG7a8IvXvK3jbNfvMvjUzVbOrClEhFecKeIrKNt2Tk7ppWbik1lwyt5mGp0qnVVutUbu1oK+Vueb5mpVrOTbaeaWXhwG9y+IkfO8k/HmeurJwbb3ufEw9pyStd3Vks37LHxVpzjJxmnF20at8CsqXX6G7RdOt1F7wm+znpk2vdbd9xPipKFaUWpptThJNaaa/NFr0J70Yy5pP3q5v8AHfxXUZAAaKgAAAAAAAAAAAAAAAAAAAAARLpZvSr04LV03ZvRWd8/IlpFelKtXpN91xaeduLM/k8Wz6hbubOz5SVaFpOF2lvJ6Zo+MXHdnKHGLafk7GJySlB5Xu/9fQ5uteOzLE1G49ZSpVZNzi7PqKilHW8r7rXG7MEZ0XLdVOvBpPRKtp+FHxWi5zqqnJNQnVko27T7ednxaWduSZgwNeSm3FvejFOybTylmlbjbnyCvGysRQs3as4rVqm1bPierGQu3GjKXHtzjGNvGKtJr2BfzKizcHG+uqck7u2trvMx4acVO0k3FxaaVt6zT052yfkBsxrTnKjuTgozqRjandShmr3bV3k9fBmntrEdZWnK/Gy4OyVllzsjo7Mp0v4mj1TetTKSjk1C6yXD/DOFjO807Jpu9s87/v3Ej537qSb4LTLK9/MtnANdVTtpuQ/Sip8JFylFLWbjG1ub/fuLcowtFRWiSXuRv8Su32ADVQAAAAAAAAAAAAAAAAAAAAACP9LsO3TVRfY19jevkyQGPEUlOLi1dNWZXU7ExWm36F4QxcHeE0oz/wCtRRSd/B2uc3BNVKtOLskmnm0lrzfsO+4LDVqmFr3/AIWs2r8k3lJPhJZe4ju39jToVIq7cHnGa7s1wa8ea8DmuW8v1xnhU6uUZuoo1FNyyvO99U9LnzDEYftb0Zyu+EIrwdr38jDhdn1px3405zve8t1yzXiZXs+v/TqN/gll8CqtdLD7SoQkpU/4neirP1dGUbX5L46aG0sbRnXjX6+LsrOE6ap2Vmmnm3o39l35nEwtDExe9CnPLLuNrT2fu591cBVlb1E1zW62r81lkEcd7EqnTxNCtTSjT3le00295a7rd0reRGsfNOpO2m80tOfgzFjKNSKUJOcUmpKLb3b+CenkbGAwsqtRRirzb8ld6v8AwSmO30HwLqV1Ut2KV37ZuNl7r39xYpo7I2dGhTVOGi14tvi34m8dOM8jLV7QAF0AAAAAAAAAAAAAAAAAAAAAAAAObtvZcMRSlTlrZ2lbOL5ogmMr18FRnh69JVqbfqt7OCyd2nqnpl7SzGjnbY2XCvTdOay4PinzRTWVpVF/8xPSMmle1t5peOXA9jtmrbOtL/6S8s7mTbGynTxLoNK7mlfJWu7XvyOLN2lKyTtJrnxtcpyLfbtUdtV4q0a1RXzyqSj9TNT6Q4n7Netb8+o/dmcWhSd1ms7LTj5G3jEoT3UlvJR8VnC97+Y4jtTvYFeptCEqdVSnUpbu7Usm0pXTUm9e7dP2k62JsWnh4JJdri9X7yGeijFRTr0m1vy3JLnK29e3sun5lkItnM9Rb+AANFQAAAAAAAAAAAAAAAAAAAAAAAAAADxnoIorXptgoLH0Ztd7dbXPtWIdVwEEsTladPGbi4tQca2Xvgs/Am3pNuqlNrXck1bXJohEo+tlm+1Ubavk2oys2ufal72Ya/prn7jVeF8CR9KNlQhCvXpxtUpzwnJrdqUFdNad75mhueRjx1SUozjvytKMG1d2lu92642I3fDMYsBKcXCrHszT3k45Wle9y9sNK8It6uMX70UlhKVopf7RdeB/lU/wR/SjXCmmcAGioAAAAAAAAAAAAAAAAAAAAAAAAAAAAIorz0mJb8L/ANOfzRB8TH1t/H+1k49Jveh+VP5ohGJ/m+Hw7ruc+/W2PG7CV3FSdlzsrmvUpb04x4tRXm5WMtPVH3RoylXpRjG824WXN71/oyNficpdsrofLeXWRaimr9pZ556E+irZCJ6dEnGNvQAFkAAAAAAAAAAAAAAAAAAAAAAAAAAAAHjIorz0nPtR/Km/iiD4qb61Lh/mMicek3vwXOjUINiv53l/bI59+tseN+lqvavmSLoM4LHJSV5OlLdetmm2/hdEbpvQtfYew6dCUqqXrJ5X+7HkvmWk7qK95K7IAN2YAAAAAAAAAAAAAAAAAAAAAAAAAAAAAHjPTxkUV16UV26X5VVfpIPiFat5L9Mic+lB9ql+XU+hCMSvW+X9kjn362x43KXDy+Zb+xqlaUJdallJqL4uNuPmVBhLb8N7u70b+y+ZdtO1stDTE+1NPsAGqgAAAAAAAAAAAAAAAAAAAAAAAAAAAAAHjPQRRXfpPynTf/iqELrr1r/f2JEz9KPfpfl1fkiF15et/f3ZHPv1tnxmpZNeRcWx8FKkp703JSldLXdVvqU5S4L2Fx7Hr1ZqXWxSSlaLXFW5F8/0pfHRABsoAAAAAAAAAAAAAAAAAAAAAAAAAAAAAAB4yKK69Kfeo/gqfQheLfrH7P7JE19KXfo/l1PoQrGtKcmm32c8rZ7kvE59+tseM2B3XUgpu0d+Kk+Ud5X+Fy8oJWVtCj9n0JVKsIQV5SlFLzZd9KCirI1wz0+wAaKgAAAAAAAAAAAAAAAAAAAAAAAAAAAAAeHoArv0oLtUnw6up9CEY7vT/C/0SLZ6ZbEeJo9j+ZG9uGT1KuxlJ79aLWcIv23VOpl8Dn3Ptrjxk2Hjeor0qtrqMk7c1o/gy7KdSL0adnZ+DKM2dhZ1akKcFeUmkkXhh6Cjokm82+bNM96pWYAGioAAAAAAAAAAAAAAAAAAAAAAAAAAAAAAADxoh3Sno2pOvWpQvOrRcbL+pnaXhdSaJkCLOpl4i3Q7oysNBVKiTryWv3FyX1JSAJOFoACUAAAAAAAAAAAAAAAAAAAAAAAAAAAAAAAAAAAAAAAAAAAAAAAAAAAAAAAAP//Z;" vertex="1" parent="1">
          <mxGeometry x="395" y="287.5" width="25" height="25" as="geometry" />
        </mxCell>
        <mxCell id="E8Vs56RH-SD99DKzMSvT-37" value="" style="shape=image;verticalLabelPosition=bottom;labelBackgroundColor=default;verticalAlign=top;aspect=fixed;imageAspect=0;image=data:image/jpeg,/9j/4AAQSkZJRgABAQAAAQABAAD/2wCEAAkGBxASEBIQEBEWExATExMVFxUWEhMRExUVGREXFxgXGBUYHSggGBomGxUWITEhJikrLi4uFyAzODMtNygtLisBCgoKDg0OGxAQGisdHSUvLS0tKystLS0tLS0tLS0tLS0tLS0tLS0tLSstLS0tLS0tLS0tLSstLS0tLTctLS0rLf/AABEIAOEA4QMBIgACEQEDEQH/xAAbAAEAAgMBAQAAAAAAAAAAAAAABgcDBAUBAv/EAD0QAAIBAgMEBgcGBgIDAAAAAAABAgMRBCExBRJBUQYTIjJhgQcjcZGhscFCUnJzsvAUM1PC0eEVYmOCk//EABgBAQADAQAAAAAAAAAAAAAAAAABAgME/8QAHBEBAQEBAQADAQAAAAAAAAAAAAECETEDIUEy/9oADAMBAAIRAxEAPwC8QAAAAAAAAAAAAAAAAYMTi6dNXqTjFeLS9y4nLn0ow3CTlnbJfGzzsRbIcdsHGo9JcPLjJZ/d/wAG/h9o0ajtCpFvlez9zImpU8bQALIAAAAAAAAAAAAAAAAAAAAAAAAAAAADA8k7ZvQiW3+ldrww7zTs52vw+yuPtPjpbthybw1J6d+2ry7qIo6dne/a4+CMd7/IvmftZ7Var3qk3nfN9p/H5GajgYyaShKTtzldv2I+cPBSais23lnaKv4XOh/wGLrRlThLcpXs8929rrhm+JlJasQ6PtxUup5vWaa9zPh4KKs4VKkLW1e9uv8A9rto1F0PxuEfXYareUeCl55xlk14Haji1jMP1ltzEU85JcUspe7PxJueIfOE2/iKDXXtVKN+8smle2a1j53XiiX4PGQqx3oSuiCYXEOLs7vWySurSSTeXHQ8pYmeFl11J2pSvvw4Rs12ra2vql7S+d2IsWIDBg8TGpCM4u6kk/8ARnN1AAAAAAAAAAAAAAAAAAAAAAAAA5+3Mf1FCdT7WkV/2eSOgRXpvO6pUvvbzfkV1eRM9Q+Mm5SlN9qWd8tW8z7p005KLdlzzfwRik8/BfK5kpxbbsm0ld2V7K+rtojl61ZqsXB7r4NP25ll4Fp04OPdcYteaKzm95JZZLzfnxN7AdIa9CG7a8IvXvK3jbNfvMvjUzVbOrClEhFecKeIrKNt2Tk7ppWbik1lwyt5mGp0qnVVutUbu1oK+Vueb5mpVrOTbaeaWXhwG9y+IkfO8k/HmeurJwbb3ufEw9pyStd3Vks37LHxVpzjJxmnF20at8CsqXX6G7RdOt1F7wm+znpk2vdbd9xPipKFaUWpptThJNaaa/NFr0J70Yy5pP3q5v8AHfxXUZAAaKgAAAAAAAAAAAAAAAAAAAAARLpZvSr04LV03ZvRWd8/IlpFelKtXpN91xaeduLM/k8Wz6hbubOz5SVaFpOF2lvJ6Zo+MXHdnKHGLafk7GJySlB5Xu/9fQ5uteOzLE1G49ZSpVZNzi7PqKilHW8r7rXG7MEZ0XLdVOvBpPRKtp+FHxWi5zqqnJNQnVko27T7ednxaWduSZgwNeSm3FvejFOybTylmlbjbnyCvGysRQs3as4rVqm1bPierGQu3GjKXHtzjGNvGKtJr2BfzKizcHG+uqck7u2trvMx4acVO0k3FxaaVt6zT052yfkBsxrTnKjuTgozqRjandShmr3bV3k9fBmntrEdZWnK/Gy4OyVllzsjo7Mp0v4mj1TetTKSjk1C6yXD/DOFjO807Jpu9s87/v3Ej537qSb4LTLK9/MtnANdVTtpuQ/Sip8JFylFLWbjG1ub/fuLcowtFRWiSXuRv8Su32ADVQAAAAAAAAAAAAAAAAAAAAACP9LsO3TVRfY19jevkyQGPEUlOLi1dNWZXU7ExWm36F4QxcHeE0oz/wCtRRSd/B2uc3BNVKtOLskmnm0lrzfsO+4LDVqmFr3/AIWs2r8k3lJPhJZe4ju39jToVIq7cHnGa7s1wa8ea8DmuW8v1xnhU6uUZuoo1FNyyvO99U9LnzDEYftb0Zyu+EIrwdr38jDhdn1px3405zve8t1yzXiZXs+v/TqN/gll8CqtdLD7SoQkpU/4neirP1dGUbX5L46aG0sbRnXjX6+LsrOE6ap2Vmmnm3o39l35nEwtDExe9CnPLLuNrT2fu591cBVlb1E1zW62r81lkEcd7EqnTxNCtTSjT3le00295a7rd0reRGsfNOpO2m80tOfgzFjKNSKUJOcUmpKLb3b+CenkbGAwsqtRRirzb8ld6v8AwSmO30HwLqV1Ut2KV37ZuNl7r39xYpo7I2dGhTVOGi14tvi34m8dOM8jLV7QAF0AAAAAAAAAAAAAAAAAAAAAAAAObtvZcMRSlTlrZ2lbOL5ogmMr18FRnh69JVqbfqt7OCyd2nqnpl7SzGjnbY2XCvTdOay4PinzRTWVpVF/8xPSMmle1t5peOXA9jtmrbOtL/6S8s7mTbGynTxLoNK7mlfJWu7XvyOLN2lKyTtJrnxtcpyLfbtUdtV4q0a1RXzyqSj9TNT6Q4n7Netb8+o/dmcWhSd1ms7LTj5G3jEoT3UlvJR8VnC97+Y4jtTvYFeptCEqdVSnUpbu7Usm0pXTUm9e7dP2k62JsWnh4JJdri9X7yGeijFRTr0m1vy3JLnK29e3sun5lkItnM9Rb+AANFQAAAAAAAAAAAAAAAAAAAAAAAAAADxnoIorXptgoLH0Ztd7dbXPtWIdVwEEsTladPGbi4tQca2Xvgs/Am3pNuqlNrXck1bXJohEo+tlm+1Ubavk2oys2ufal72Ya/prn7jVeF8CR9KNlQhCvXpxtUpzwnJrdqUFdNad75mhueRjx1SUozjvytKMG1d2lu92642I3fDMYsBKcXCrHszT3k45Wle9y9sNK8It6uMX70UlhKVopf7RdeB/lU/wR/SjXCmmcAGioAAAAAAAAAAAAAAAAAAAAAAAAAAAAIorz0mJb8L/ANOfzRB8TH1t/H+1k49Jveh+VP5ohGJ/m+Hw7ruc+/W2PG7CV3FSdlzsrmvUpb04x4tRXm5WMtPVH3RoylXpRjG824WXN71/oyNficpdsrofLeXWRaimr9pZ556E+irZCJ6dEnGNvQAFkAAAAAAAAAAAAAAAAAAAAAAAAAAAAHjIorz0nPtR/Km/iiD4qb61Lh/mMicek3vwXOjUINiv53l/bI59+tseN+lqvavmSLoM4LHJSV5OlLdetmm2/hdEbpvQtfYew6dCUqqXrJ5X+7HkvmWk7qK95K7IAN2YAAAAAAAAAAAAAAAAAAAAAAAAAAAAAHjPTxkUV16UV26X5VVfpIPiFat5L9Mic+lB9ql+XU+hCMSvW+X9kjn362x43KXDy+Zb+xqlaUJdallJqL4uNuPmVBhLb8N7u70b+y+ZdtO1stDTE+1NPsAGqgAAAAAAAAAAAAAAAAAAAAAAAAAAAAAHjPQRRXfpPynTf/iqELrr1r/f2JEz9KPfpfl1fkiF15et/f3ZHPv1tnxmpZNeRcWx8FKkp703JSldLXdVvqU5S4L2Fx7Hr1ZqXWxSSlaLXFW5F8/0pfHRABsoAAAAAAAAAAAAAAAAAAAAAAAAAAAAAAB4yKK69Kfeo/gqfQheLfrH7P7JE19KXfo/l1PoQrGtKcmm32c8rZ7kvE59+tseM2B3XUgpu0d+Kk+Ud5X+Fy8oJWVtCj9n0JVKsIQV5SlFLzZd9KCirI1wz0+wAaKgAAAAAAAAAAAAAAAAAAAAAAAAAAAAAeHoArv0oLtUnw6up9CEY7vT/C/0SLZ6ZbEeJo9j+ZG9uGT1KuxlJ79aLWcIv23VOpl8Dn3Ptrjxk2Hjeor0qtrqMk7c1o/gy7KdSL0adnZ+DKM2dhZ1akKcFeUmkkXhh6Cjokm82+bNM96pWYAGioAAAAAAAAAAAAAAAAAAAAAAAAAAAAAAADxoh3Sno2pOvWpQvOrRcbL+pnaXhdSaJkCLOpl4i3Q7oysNBVKiTryWv3FyX1JSAJOFoACUAAAAAAAAAAAAAAAAAAAAAAAAAAAAAAAAAAAAAAAAAAAAAAAAAAAAAAAAP//Z;" vertex="1" parent="1">
          <mxGeometry x="384" y="110" width="11" height="11" as="geometry" />
        </mxCell>
      </root>
    </mxGraphModel>
  </diagram>
</mxfile>
